<?xml version="1.0" standalone="no"?>
<!DOCTYPE svg PUBLIC "-//W3C//DTD SVG 20010904//EN"
 "http://www.w3.org/TR/2001/REC-SVG-20010904/DTD/svg10.dtd">
<svg version="1.0" xmlns="http://www.w3.org/2000/svg"
 width="2048.000000pt" height="2048.000000pt" viewBox="0 0 2048.000000 2048.000000"
 preserveAspectRatio="xMidYMid meet">

<g transform="translate(0.000000,2048.000000) scale(0.100000,-0.100000)"
fill="#000000" stroke="none">
<path d="M9945 15687 c-642 -338 -1140 -715 -1526 -1157 -169 -193 -409 -538
-532 -765 -177 -328 -326 -744 -381 -1070 -46 -270 -46 -253 -46 -2047 l0
-1698 135 0 134 0 4 1728 c3 1711 3 1728 24 1857 91 553 288 1022 630 1504
238 334 527 626 878 886 248 185 481 333 717 459 l108 58 112 -58 c242 -123
450 -251 693 -427 179 -130 310 -242 481 -412 543 -540 875 -1126 1024 -1805
56 -259 54 -168 59 -2040 l6 -1745 133 -3 132 -3 0 1698 c0 1811 0 1808 -49
2078 -142 780 -616 1594 -1266 2174 -292 261 -547 444 -902 647 -232 133 -376
204 -415 204 -21 0 -78 -24 -153 -63z"/>
<path d="M10012 11449 c-107 -21 -225 -104 -279 -197 -56 -96 -77 -225 -52
-331 28 -123 122 -240 238 -295 62 -29 73 -31 182 -31 113 0 116 1 191 38 91
45 157 112 202 207 29 62 31 71 31 186 0 119 0 121 -38 196 -86 176 -276 266
-475 227z"/>
<path d="M8683 10960 c-85 -18 -171 -79 -221 -157 -123 -194 -51 -445 156
-541 48 -22 71 -27 142 -27 72 0 94 5 145 28 81 38 120 70 160 130 98 149 79
335 -49 463 -45 44 -77 67 -120 83 -68 25 -153 34 -213 21z"/>
<path d="M11357 10959 c-102 -24 -206 -109 -255 -208 -24 -49 -27 -68 -27
-151 0 -87 3 -101 32 -161 100 -203 340 -268 530 -144 61 40 92 79 130 160 36
79 38 191 4 277 -24 63 -94 147 -153 184 -72 46 -177 63 -261 43z"/>
<path d="M9936 10424 c-275 -61 -446 -239 -446 -464 0 -33 5 -40 55 -75 146
-100 265 -272 265 -383 0 -58 -48 -162 -76 -162 -6 0 -30 35 -55 78 -59 103
-113 162 -150 162 -60 0 -59 8 -59 -565 l0 -521 78 -54 c164 -115 360 -299
470 -440 36 -47 69 -89 73 -93 3 -5 35 31 70 80 87 120 231 261 380 373 68 51
134 97 147 103 l22 10 0 554 c0 442 -3 553 -13 553 -38 0 -125 -110 -176 -221
l-29 -64 -22 48 c-45 99 -36 212 26 335 32 65 73 110 186 207 l35 30 -8 78
c-10 107 -49 188 -129 266 -66 65 -181 129 -280 157 -83 23 -280 27 -364 8z"/>
<path d="M8672 10090 c-82 -11 -122 -25 -205 -67 -81 -43 -173 -137 -211 -217
-40 -84 -47 -176 -44 -550 l3 -340 149 -23 c331 -51 641 -149 850 -268 l77
-43 -3 581 -3 582 -31 65 c-17 36 -48 84 -68 107 -49 56 -157 126 -231 151
-72 24 -197 33 -283 22z"/>
<path d="M11329 10090 c-168 -27 -316 -135 -391 -288 l-33 -67 -3 -573 c-1
-316 1 -572 5 -570 4 2 40 20 80 40 229 119 528 212 840 260 l144 22 -3 411
-3 410 -32 67 c-57 122 -180 228 -310 268 -74 23 -215 32 -294 20z"/>
<path d="M11605 8244 c-363 -64 -644 -152 -977 -305 -161 -74 -259 -142 -393
-274 -137 -136 -152 -141 -208 -72 -236 288 -691 509 -1307 634 l-175 35 -260
-5 c-257 -6 -398 -18 -670 -58 -148 -21 -193 -35 -85 -25 158 14 410 17 590 6
423 -24 716 -82 1040 -207 150 -58 416 -180 409 -187 -2 -3 -43 9 -89 25 -532
190 -1290 269 -1941 204 -308 -31 -936 -134 -975 -160 -48 -31 -40 -106 15
-138 26 -15 41 -15 187 -2 345 31 546 39 944 39 745 1 1344 -70 1861 -218 190
-55 245 -76 329 -126 133 -80 230 -80 381 -1 62 32 157 68 265 101 398 121
784 191 1274 230 361 29 1002 22 1465 -16 105 -9 218 -16 253 -17 60 -2 65 0
93 31 41 46 36 97 -12 122 -41 22 -782 138 -1019 160 -625 56 -1367 -23 -1859
-199 -63 -23 -116 -39 -118 -38 -11 12 419 188 599 245 354 113 686 156 1165
150 160 -1 291 -2 290 -1 -2 1 -272 38 -352 48 -88 10 -519 45 -550 44 -16 0
-93 -12 -170 -25z"/>
<path d="M7135 6690 c-273 -70 -467 -261 -532 -528 -26 -105 -23 -297 5 -396
58 -203 181 -357 353 -439 130 -63 224 -81 393 -74 87 3 157 12 207 26 87 24
198 71 216 92 10 12 33 179 33 240 0 39 -31 17 -61 -42 -41 -82 -114 -153
-195 -191 -86 -40 -217 -50 -310 -23 -193 55 -335 216 -390 440 -24 96 -24
333 -1 427 36 145 129 279 238 345 151 90 369 80 499 -23 60 -48 112 -119 140
-193 16 -45 27 -61 39 -59 14 3 16 23 12 173 -2 94 -5 173 -8 178 -2 4 -22 7
-43 7 -21 0 -81 12 -132 26 -131 37 -346 43 -463 14z"/>
<path d="M8561 6700 c-299 -63 -494 -253 -562 -547 -18 -79 -21 -113 -16 -216
7 -143 23 -211 80 -327 56 -115 168 -229 277 -282 128 -62 184 -73 365 -72
176 1 244 14 389 74 85 35 78 22 97 188 13 118 3 150 -28 92 -47 -85 -93 -149
-130 -178 -91 -72 -222 -103 -348 -84 -304 47 -487 351 -453 754 25 302 194
506 434 524 218 17 396 -98 454 -293 12 -41 32 -55 45 -33 3 5 3 86 -1 180
l-7 170 -38 0 c-21 0 -83 12 -136 26 -79 21 -126 27 -238 30 -77 2 -160 -1
-184 -6z"/>
<path d="M12067 6699 c-269 -63 -398 -351 -255 -565 47 -69 123 -126 311 -232
225 -128 282 -187 294 -306 21 -204 -189 -333 -394 -241 -106 47 -172 129
-241 298 -6 15 -18 27 -27 27 -13 0 -15 -26 -15 -184 l0 -183 63 -11 c34 -6
105 -20 157 -31 106 -23 250 -27 332 -10 125 27 237 109 288 212 82 169 55
344 -71 463 -65 61 -93 79 -286 184 -81 45 -167 97 -190 116 -114 93 -112 277
4 358 34 24 55 30 116 34 161 10 284 -76 334 -235 12 -38 21 -53 32 -51 14 3
16 27 19 159 l2 155 -122 27 c-128 29 -271 35 -351 16z"/>
<path d="M14111 6678 c-5 -13 -29 -75 -54 -138 -111 -284 -430 -1076 -448
-1113 -30 -60 -77 -106 -116 -113 -23 -4 -33 -12 -33 -25 0 -18 10 -19 190
-19 183 0 190 1 190 20 0 14 -7 20 -21 20 -11 0 -34 14 -51 30 -27 28 -30 36
-26 78 5 51 90 276 116 305 14 15 39 17 252 17 213 0 238 -2 252 -17 24 -28
109 -263 115 -319 5 -46 3 -52 -22 -72 -15 -12 -36 -22 -46 -22 -12 0 -19 -7
-19 -20 0 -19 7 -20 234 -20 129 0 237 4 240 8 8 13 -7 29 -36 35 -37 10 -85
53 -108 97 -11 21 -125 312 -255 646 -129 335 -239 616 -244 624 -5 9 -26 16
-55 18 -40 3 -47 0 -55 -20z m114 -577 c52 -140 95 -258 95 -263 0 -9 -413
-12 -422 -3 -4 5 140 382 204 535 12 31 -1 59 123 -269z"/>
<path d="M5372 6674 c2 -9 25 -23 53 -32 43 -15 53 -24 73 -62 l23 -45 -3
-565 c-3 -549 -4 -566 -23 -600 -16 -27 -33 -39 -70 -51 -29 -9 -50 -22 -50
-30 0 -12 75 -14 492 -17 l493 -2 5 22 c10 45 55 291 55 304 0 8 -8 14 -18 14
-13 0 -25 -17 -41 -54 -28 -67 -90 -139 -145 -169 -37 -20 -58 -22 -231 -25
l-190 -3 -25 26 -25 27 -3 274 -3 274 138 0 c197 0 248 -19 276 -105 8 -22 21
-41 30 -43 15 -3 17 16 17 192 0 218 -6 235 -50 143 -38 -79 -60 -87 -252 -87
l-158 0 0 270 0 270 193 0 c181 0 195 -2 243 -24 58 -27 87 -63 113 -138 11
-32 25 -54 34 -56 15 -3 17 13 17 152 l0 156 -486 0 c-439 0 -485 -2 -482 -16z"/>
<path d="M9372 6674 c2 -9 21 -22 43 -30 52 -17 82 -53 90 -106 3 -24 5 -290
3 -593 -3 -598 -3 -591 -59 -621 -16 -8 -37 -14 -49 -14 -13 0 -20 -7 -20 -20
0 -20 7 -20 470 -20 l469 0 10 38 c17 62 51 284 45 293 -12 19 -24 6 -53 -55
-17 -35 -49 -82 -71 -104 -63 -62 -108 -74 -300 -80 -154 -4 -167 -3 -190 16
l-25 20 -3 577 c-2 506 -1 580 13 609 16 33 33 46 88 66 15 5 27 16 27 25 0
13 -32 15 -246 15 -219 0 -245 -2 -242 -16z"/>
<path d="M10500 6673 c0 -13 15 -23 47 -33 28 -9 55 -26 67 -43 21 -28 21 -40
24 -580 2 -304 0 -571 -3 -594 -8 -58 -46 -101 -96 -109 -29 -5 -39 -11 -39
-25 0 -19 16 -19 482 -17 l482 3 27 145 c15 80 28 155 28 168 1 41 -27 23 -53
-34 -36 -79 -76 -126 -138 -160 -52 -28 -57 -29 -221 -32 -93 -2 -180 -1 -193
2 -49 13 -54 42 -54 331 l0 265 131 0 c198 0 251 -21 278 -110 7 -23 18 -40
26 -40 12 0 15 23 15 129 0 70 3 156 6 190 6 56 5 61 -12 61 -12 -1 -26 -16
-39 -42 -37 -76 -54 -83 -241 -86 l-164 -3 0 270 0 271 183 0 c177 0 185 -1
235 -26 59 -29 89 -66 113 -138 9 -30 23 -52 33 -54 14 -3 16 13 16 152 l0
156 -470 0 c-441 0 -470 -1 -470 -17z"/>
<path d="M12832 6673 c2 -10 18 -21 36 -27 46 -13 79 -47 92 -95 7 -28 10
-216 8 -600 -3 -548 -3 -560 -24 -588 -12 -17 -39 -34 -67 -43 -32 -10 -47
-20 -47 -33 0 -16 16 -17 248 -15 199 2 247 6 247 16 0 8 -22 21 -50 30 -37
13 -54 26 -70 52 -19 34 -20 49 -20 617 0 575 0 582 21 610 12 15 41 35 65 44
24 9 45 24 47 33 3 14 -21 16 -243 16 -227 0 -246 -1 -243 -17z"/>
</g>
</svg>
